<svg xmlns="http://www.w3.org/2000/svg" xmlns:xlink="http://www.w3.org/1999/xlink" width="500" zoomAndPan="magnify" viewBox="0 0 375 374.999991" height="500" preserveAspectRatio="xMidYMid meet" version="1.2"><defs><clipPath id="e8833761b0"><path d="M 199.152344 81.058594 L 312.652344 81.058594 L 312.652344 137.808594 L 199.152344 137.808594 Z M 199.152344 81.058594 "/></clipPath><clipPath id="f671436240"><path d="M 94.046875 217.328125 L 207.542969 217.328125 L 207.542969 274.078125 L 94.046875 274.078125 Z M 94.046875 217.328125 "/></clipPath></defs><g id="49943b0293"><rect x="0" width="375" y="0" height="374.999991" style="fill:#ffffff;fill-opacity:1;stroke:none;"/><rect x="0" width="375" y="0" height="374.999991" style="fill:#ffffff;fill-opacity:1;stroke:none;"/><g clip-rule="nonzero" clip-path="url(#e8833761b0)"><path style=" stroke:none;fill-rule:nonzero;fill:#ffd483;fill-opacity:1;" d="M 312.640625 137.796875 L 308.457031 137.796875 C 308.457031 108.816406 284.882812 85.238281 255.902344 85.238281 C 226.921875 85.238281 203.34375 108.816406 203.34375 137.796875 L 199.164062 137.796875 C 199.164062 122.640625 205.066406 108.394531 215.78125 97.675781 C 226.496094 86.960938 240.746094 81.058594 255.902344 81.058594 C 271.058594 81.058594 285.304688 86.960938 296.023438 97.675781 C 306.738281 108.394531 312.640625 122.640625 312.640625 137.796875 Z M 312.640625 137.796875 "/></g><g style="fill:#ffd483;fill-opacity:1;"><g transform="translate(29.838318, 206.581454)"><path style="stroke:none" d="M 5.734375 -5.359375 C 4.742188 -5.359375 3.972656 -5.453125 3.421875 -5.640625 C 2.929688 -5.828125 2.53125 -6.101562 2.21875 -6.46875 C 1.90625 -6.84375 1.722656 -7.304688 1.671875 -7.859375 C 1.609375 -8.171875 1.578125 -8.476562 1.578125 -8.78125 L 1.578125 -9.890625 C 1.691406 -11.867188 1.691406 -13.78125 1.578125 -15.625 C 1.515625 -16.550781 1.484375 -17.507812 1.484375 -18.5 C 1.421875 -19.414062 1.359375 -20.367188 1.296875 -21.359375 C 1.171875 -25.054688 1.078125 -28.109375 1.015625 -30.515625 C 0.890625 -32.921875 0.796875 -35.140625 0.734375 -37.171875 C 0.671875 -38.222656 0.640625 -39.300781 0.640625 -40.40625 C 0.585938 -41.457031 0.53125 -42.566406 0.46875 -43.734375 C 0.40625 -44.910156 0.34375 -46.207031 0.28125 -47.625 C 0.21875 -49.039062 0.125 -50.613281 0 -52.34375 C -0.0625 -52.832031 -0.09375 -53.320312 -0.09375 -53.8125 L -0.09375 -55.109375 C -0.09375 -55.910156 0.242188 -56.46875 0.921875 -56.78125 C 2.585938 -57.519531 4.191406 -57.488281 5.734375 -56.6875 C 6.347656 -56.4375 6.8125 -55.539062 7.125 -54 C 7.25 -53.257812 7.367188 -52.488281 7.484375 -51.6875 C 7.609375 -50.882812 7.734375 -50.050781 7.859375 -49.1875 C 7.984375 -48.332031 8.078125 -47.503906 8.140625 -46.703125 C 8.203125 -45.898438 8.265625 -45.128906 8.328125 -44.390625 C 8.390625 -42.972656 8.570312 -42.109375 8.875 -41.796875 C 9.550781 -41.921875 9.984375 -42.257812 10.171875 -42.8125 C 10.296875 -43.125 10.421875 -43.398438 10.546875 -43.640625 C 10.660156 -43.828125 10.78125 -44.046875 10.90625 -44.296875 L 11.84375 -45.671875 C 12.207031 -46.234375 12.632812 -46.851562 13.125 -47.53125 C 13.625 -48.207031 14.148438 -48.914062 14.703125 -49.65625 C 15.253906 -50.394531 15.835938 -51.132812 16.453125 -51.875 C 17.628906 -53.351562 18.832031 -54.648438 20.0625 -55.765625 C 21.300781 -56.929688 22.316406 -57.546875 23.109375 -57.609375 C 23.910156 -57.671875 24.5625 -57.671875 25.0625 -57.609375 C 25.488281 -57.484375 26.410156 -57.113281 27.828125 -56.5 C 26.535156 -54.46875 25.148438 -52.617188 23.671875 -50.953125 C 22.191406 -49.285156 20.804688 -47.523438 19.515625 -45.671875 C 18.898438 -44.816406 18.3125 -43.925781 17.75 -43 C 17.132812 -42.070312 16.519531 -41.144531 15.90625 -40.21875 C 15.289062 -39.300781 14.703125 -38.378906 14.140625 -37.453125 C 13.523438 -36.523438 12.878906 -35.566406 12.203125 -34.578125 L 14.703125 -32.09375 C 15.066406 -31.71875 15.46875 -31.316406 15.90625 -30.890625 C 16.269531 -30.453125 16.671875 -29.988281 17.109375 -29.5 C 17.535156 -29 18 -28.441406 18.5 -27.828125 C 18.988281 -27.148438 19.507812 -26.410156 20.0625 -25.609375 C 21.175781 -24.003906 22.566406 -21.878906 24.234375 -19.234375 C 24.972656 -18.066406 25.617188 -17.050781 26.171875 -16.1875 C 26.722656 -15.257812 27.1875 -14.457031 27.5625 -13.78125 C 28.300781 -12.488281 28.851562 -11.46875 29.21875 -10.71875 C 29.59375 -9.976562 29.78125 -9.425781 29.78125 -9.0625 C 29.78125 -8.570312 29.75 -8.203125 29.6875 -7.953125 C 28.082031 -7.085938 26.753906 -6.65625 25.703125 -6.65625 C 24.597656 -6.65625 23.394531 -7.300781 22.09375 -8.59375 C 20.800781 -9.894531 19.234375 -11.929688 17.390625 -14.703125 C 16.460938 -16.117188 15.378906 -17.785156 14.140625 -19.703125 C 12.910156 -21.546875 11.523438 -23.640625 9.984375 -25.984375 C 9.304688 -25.671875 9.03125 -25.300781 9.15625 -24.875 C 9.21875 -24.5625 9.25 -24.160156 9.25 -23.671875 C 9.550781 -19.722656 9.828125 -16.609375 10.078125 -14.328125 C 10.328125 -11.984375 10.421875 -10.226562 10.359375 -9.0625 C 10.296875 -7.894531 9.925781 -7.125 9.25 -6.75 C 8.632812 -6.382812 7.523438 -6.257812 5.921875 -6.375 Z M 5.734375 -5.359375 "/></g></g><g style="fill:#ffd483;fill-opacity:1;"><g transform="translate(82.820154, 206.581454)"><path style="stroke:none" d="M 11.46875 -6.109375 C 8.382812 -6.660156 5.976562 -8.257812 4.25 -10.90625 C 2.46875 -13.5625 1.265625 -16.890625 0.640625 -20.890625 C -0.0351562 -24.835938 -0.125 -29.28125 0.375 -34.21875 C 0.800781 -38.957031 1.785156 -43.945312 3.328125 -49.1875 C 4.128906 -52.03125 5.765625 -54.25 8.234375 -55.84375 C 9.835938 -56.769531 11.160156 -57.328125 12.203125 -57.515625 C 13.316406 -57.703125 14.273438 -57.703125 15.078125 -57.515625 C 15.878906 -57.328125 16.617188 -57.050781 17.296875 -56.6875 C 17.910156 -56.3125 18.617188 -56.125 19.421875 -56.125 C 21.203125 -56 22.679688 -55.414062 23.859375 -54.375 C 25.148438 -53.195312 26.132812 -51.867188 26.8125 -50.390625 C 27.550781 -48.785156 28.109375 -47.03125 28.484375 -45.125 C 28.660156 -44.132812 28.8125 -43.179688 28.9375 -42.265625 C 29 -41.335938 29.0625 -40.441406 29.125 -39.578125 C 29.1875 -36.921875 29.1875 -34.207031 29.125 -31.4375 C 29 -28.664062 28.722656 -25.984375 28.296875 -23.390625 C 27.859375 -20.867188 27.210938 -18.4375 26.359375 -16.09375 C 25.492188 -13.75 24.382812 -11.804688 23.03125 -10.265625 C 21.664062 -8.722656 20 -7.582031 18.03125 -6.84375 C 16.175781 -6.101562 13.925781 -5.976562 11.28125 -6.46875 Z M 14.140625 -9.890625 C 15.441406 -10.203125 16.613281 -11.46875 17.65625 -13.6875 C 18.707031 -16.03125 19.507812 -18.710938 20.0625 -21.734375 C 20.375 -23.335938 20.625 -24.96875 20.8125 -26.625 C 20.925781 -28.289062 21.015625 -30.019531 21.078125 -31.8125 C 21.203125 -35.570312 20.988281 -38.898438 20.4375 -41.796875 C 19.882812 -44.878906 18.957031 -47.4375 17.65625 -49.46875 C 16.363281 -51.5625 14.609375 -52.640625 12.390625 -52.703125 C 11.898438 -52.398438 11.375 -51.382812 10.8125 -49.65625 C 10.195312 -47.75 9.675781 -45.5625 9.25 -43.09375 C 9 -41.800781 8.8125 -40.441406 8.6875 -39.015625 C 8.5625 -37.597656 8.441406 -36.085938 8.328125 -34.484375 C 8.203125 -32.890625 8.171875 -31.351562 8.234375 -29.875 C 8.296875 -28.332031 8.382812 -26.789062 8.5 -25.25 C 8.75 -22.289062 9.367188 -19.421875 10.359375 -16.640625 C 11.285156 -13.992188 12.640625 -11.867188 14.421875 -10.265625 Z M 14.140625 -9.890625 "/></g></g><g style="fill:#ffd483;fill-opacity:1;"><g transform="translate(135.154733, 206.581454)"><path style="stroke:none" d="M 5.734375 -5.359375 C 4.742188 -5.359375 3.972656 -5.453125 3.421875 -5.640625 C 2.929688 -5.828125 2.53125 -6.101562 2.21875 -6.46875 C 1.90625 -6.84375 1.722656 -7.304688 1.671875 -7.859375 C 1.609375 -8.171875 1.578125 -8.476562 1.578125 -8.78125 L 1.578125 -9.890625 C 1.691406 -11.867188 1.691406 -13.78125 1.578125 -15.625 C 1.515625 -16.550781 1.484375 -17.507812 1.484375 -18.5 C 1.421875 -19.414062 1.359375 -20.367188 1.296875 -21.359375 C 1.171875 -25.054688 1.078125 -28.109375 1.015625 -30.515625 C 0.890625 -32.921875 0.796875 -35.140625 0.734375 -37.171875 C 0.671875 -38.222656 0.640625 -39.300781 0.640625 -40.40625 C 0.585938 -41.457031 0.53125 -42.566406 0.46875 -43.734375 C 0.40625 -44.910156 0.34375 -46.207031 0.28125 -47.625 C 0.21875 -49.039062 0.125 -50.613281 0 -52.34375 C -0.0625 -52.832031 -0.09375 -53.320312 -0.09375 -53.8125 L -0.09375 -55.109375 C -0.09375 -55.910156 0.242188 -56.46875 0.921875 -56.78125 C 2.585938 -57.519531 4.191406 -57.488281 5.734375 -56.6875 C 6.347656 -56.4375 6.8125 -55.539062 7.125 -54 C 7.25 -53.257812 7.367188 -52.488281 7.484375 -51.6875 C 7.609375 -50.882812 7.734375 -50.050781 7.859375 -49.1875 C 7.984375 -48.332031 8.078125 -47.503906 8.140625 -46.703125 C 8.203125 -45.898438 8.265625 -45.128906 8.328125 -44.390625 C 8.390625 -42.972656 8.570312 -42.109375 8.875 -41.796875 C 9.550781 -41.921875 9.984375 -42.257812 10.171875 -42.8125 C 10.296875 -43.125 10.421875 -43.398438 10.546875 -43.640625 C 10.660156 -43.828125 10.78125 -44.046875 10.90625 -44.296875 L 11.84375 -45.671875 C 12.207031 -46.234375 12.632812 -46.851562 13.125 -47.53125 C 13.625 -48.207031 14.148438 -48.914062 14.703125 -49.65625 C 15.253906 -50.394531 15.835938 -51.132812 16.453125 -51.875 C 17.628906 -53.351562 18.832031 -54.648438 20.0625 -55.765625 C 21.300781 -56.929688 22.316406 -57.546875 23.109375 -57.609375 C 23.910156 -57.671875 24.5625 -57.671875 25.0625 -57.609375 C 25.488281 -57.484375 26.410156 -57.113281 27.828125 -56.5 C 26.535156 -54.46875 25.148438 -52.617188 23.671875 -50.953125 C 22.191406 -49.285156 20.804688 -47.523438 19.515625 -45.671875 C 18.898438 -44.816406 18.3125 -43.925781 17.75 -43 C 17.132812 -42.070312 16.519531 -41.144531 15.90625 -40.21875 C 15.289062 -39.300781 14.703125 -38.378906 14.140625 -37.453125 C 13.523438 -36.523438 12.878906 -35.566406 12.203125 -34.578125 L 14.703125 -32.09375 C 15.066406 -31.71875 15.46875 -31.316406 15.90625 -30.890625 C 16.269531 -30.453125 16.671875 -29.988281 17.109375 -29.5 C 17.535156 -29 18 -28.441406 18.5 -27.828125 C 18.988281 -27.148438 19.507812 -26.410156 20.0625 -25.609375 C 21.175781 -24.003906 22.566406 -21.878906 24.234375 -19.234375 C 24.972656 -18.066406 25.617188 -17.050781 26.171875 -16.1875 C 26.722656 -15.257812 27.1875 -14.457031 27.5625 -13.78125 C 28.300781 -12.488281 28.851562 -11.46875 29.21875 -10.71875 C 29.59375 -9.976562 29.78125 -9.425781 29.78125 -9.0625 C 29.78125 -8.570312 29.75 -8.203125 29.6875 -7.953125 C 28.082031 -7.085938 26.753906 -6.65625 25.703125 -6.65625 C 24.597656 -6.65625 23.394531 -7.300781 22.09375 -8.59375 C 20.800781 -9.894531 19.234375 -11.929688 17.390625 -14.703125 C 16.460938 -16.117188 15.378906 -17.785156 14.140625 -19.703125 C 12.910156 -21.546875 11.523438 -23.640625 9.984375 -25.984375 C 9.304688 -25.671875 9.03125 -25.300781 9.15625 -24.875 C 9.21875 -24.5625 9.25 -24.160156 9.25 -23.671875 C 9.550781 -19.722656 9.828125 -16.609375 10.078125 -14.328125 C 10.328125 -11.984375 10.421875 -10.226562 10.359375 -9.0625 C 10.296875 -7.894531 9.925781 -7.125 9.25 -6.75 C 8.632812 -6.382812 7.523438 -6.257812 5.921875 -6.375 Z M 5.734375 -5.359375 "/></g></g><g style="fill:#ffd483;fill-opacity:1;"><g transform="translate(188.136569, 206.581454)"><path style="stroke:none" d="M 11.46875 -6.109375 C 8.382812 -6.660156 5.976562 -8.257812 4.25 -10.90625 C 2.46875 -13.5625 1.265625 -16.890625 0.640625 -20.890625 C -0.0351562 -24.835938 -0.125 -29.28125 0.375 -34.21875 C 0.800781 -38.957031 1.785156 -43.945312 3.328125 -49.1875 C 4.128906 -52.03125 5.765625 -54.25 8.234375 -55.84375 C 9.835938 -56.769531 11.160156 -57.328125 12.203125 -57.515625 C 13.316406 -57.703125 14.273438 -57.703125 15.078125 -57.515625 C 15.878906 -57.328125 16.617188 -57.050781 17.296875 -56.6875 C 17.910156 -56.3125 18.617188 -56.125 19.421875 -56.125 C 21.203125 -56 22.679688 -55.414062 23.859375 -54.375 C 25.148438 -53.195312 26.132812 -51.867188 26.8125 -50.390625 C 27.550781 -48.785156 28.109375 -47.03125 28.484375 -45.125 C 28.660156 -44.132812 28.8125 -43.179688 28.9375 -42.265625 C 29 -41.335938 29.0625 -40.441406 29.125 -39.578125 C 29.1875 -36.921875 29.1875 -34.207031 29.125 -31.4375 C 29 -28.664062 28.722656 -25.984375 28.296875 -23.390625 C 27.859375 -20.867188 27.210938 -18.4375 26.359375 -16.09375 C 25.492188 -13.75 24.382812 -11.804688 23.03125 -10.265625 C 21.664062 -8.722656 20 -7.582031 18.03125 -6.84375 C 16.175781 -6.101562 13.925781 -5.976562 11.28125 -6.46875 Z M 14.140625 -9.890625 C 15.441406 -10.203125 16.613281 -11.46875 17.65625 -13.6875 C 18.707031 -16.03125 19.507812 -18.710938 20.0625 -21.734375 C 20.375 -23.335938 20.625 -24.96875 20.8125 -26.625 C 20.925781 -28.289062 21.015625 -30.019531 21.078125 -31.8125 C 21.203125 -35.570312 20.988281 -38.898438 20.4375 -41.796875 C 19.882812 -44.878906 18.957031 -47.4375 17.65625 -49.46875 C 16.363281 -51.5625 14.609375 -52.640625 12.390625 -52.703125 C 11.898438 -52.398438 11.375 -51.382812 10.8125 -49.65625 C 10.195312 -47.75 9.675781 -45.5625 9.25 -43.09375 C 9 -41.800781 8.8125 -40.441406 8.6875 -39.015625 C 8.5625 -37.597656 8.441406 -36.085938 8.328125 -34.484375 C 8.203125 -32.890625 8.171875 -31.351562 8.234375 -29.875 C 8.296875 -28.332031 8.382812 -26.789062 8.5 -25.25 C 8.75 -22.289062 9.367188 -19.421875 10.359375 -16.640625 C 11.285156 -13.992188 12.640625 -11.867188 14.421875 -10.265625 Z M 14.140625 -9.890625 "/></g></g><g style="fill:#ffd483;fill-opacity:1;"><g transform="translate(240.471149, 206.581454)"><path style="stroke:none" d="M 8.59375 -5.640625 C 7.175781 -5.515625 5.914062 -5.609375 4.8125 -5.921875 C 3.757812 -6.160156 3.082031 -6.992188 2.78125 -8.421875 L 2.6875 -9.25 L 2.6875 -9.703125 C 2.6875 -9.828125 2.65625 -10.015625 2.59375 -10.265625 C 2.46875 -10.691406 2.375 -11.429688 2.3125 -12.484375 C 2.25 -12.972656 2.21875 -13.585938 2.21875 -14.328125 C 2.15625 -15.066406 2.0625 -15.960938 1.9375 -17.015625 C 1.8125 -18.066406 1.722656 -19.238281 1.671875 -20.53125 C 1.546875 -21.820312 1.421875 -23.269531 1.296875 -24.875 C 1.171875 -26.476562 1.046875 -28.328125 0.921875 -30.421875 C 0.734375 -32.453125 0.550781 -34.734375 0.375 -37.265625 C 0.0625 -40.285156 -0.125 -42.597656 -0.1875 -44.203125 C -0.25 -45.003906 -0.28125 -45.742188 -0.28125 -46.421875 C -0.34375 -47.097656 -0.375 -47.710938 -0.375 -48.265625 C -0.375 -48.816406 -0.34375 -49.34375 -0.28125 -49.84375 C -0.28125 -50.332031 -0.25 -50.820312 -0.1875 -51.3125 C -0.0625 -52.300781 0.125 -53.660156 0.375 -55.390625 C 0.550781 -56.742188 1.320312 -57.695312 2.6875 -58.25 C 4.039062 -58.8125 5.640625 -59.09375 7.484375 -59.09375 C 9.273438 -59.09375 11.15625 -58.90625 13.125 -58.53125 C 14.113281 -58.34375 15.007812 -58.160156 15.8125 -57.984375 C 16.613281 -57.796875 17.351562 -57.578125 18.03125 -57.328125 C 21.914062 -56.097656 24.039062 -53.414062 24.40625 -49.28125 C 24.59375 -47.25 24.59375 -45.398438 24.40625 -43.734375 C 24.226562 -42.066406 23.769531 -40.40625 23.03125 -38.75 C 22.289062 -37.144531 21.207031 -35.320312 19.78125 -33.28125 C 18.363281 -31.3125 16.609375 -29.003906 14.515625 -26.359375 C 17.722656 -22.660156 20.21875 -19.789062 22 -17.75 C 23.789062 -15.65625 25.117188 -14.144531 25.984375 -13.21875 C 26.972656 -12.113281 27.585938 -11.375 27.828125 -11 C 27.953125 -10.757812 28.109375 -10.515625 28.296875 -10.265625 C 28.484375 -9.953125 28.664062 -9.644531 28.84375 -9.34375 C 29.28125 -8.539062 29.28125 -7.863281 28.84375 -7.3125 C 28.351562 -6.75 27.644531 -6.40625 26.71875 -6.28125 C 25.914062 -6.226562 24.867188 -6.382812 23.578125 -6.75 C 22.347656 -7.125 21.332031 -7.863281 20.53125 -8.96875 C 19.476562 -10.257812 18.582031 -11.398438 17.84375 -12.390625 C 17.101562 -13.316406 16.488281 -14.085938 16 -14.703125 C 15.5 -15.316406 15.066406 -15.84375 14.703125 -16.28125 C 14.328125 -16.644531 14.050781 -16.953125 13.875 -17.203125 C 13.6875 -17.441406 13.53125 -17.625 13.40625 -17.75 L 13.125 -18.03125 L 12.578125 -18.59375 C 12.023438 -18.28125 11.75 -17.96875 11.75 -17.65625 L 11.75 -16.734375 C 11.863281 -14.453125 11.953125 -12.632812 12.015625 -11.28125 C 12.078125 -9.863281 12.078125 -8.753906 12.015625 -7.953125 C 11.953125 -7.148438 11.675781 -6.566406 11.1875 -6.203125 C 10.757812 -5.890625 10.019531 -5.671875 8.96875 -5.546875 Z M 10.359375 -31.8125 C 11.347656 -32.851562 12.238281 -34.113281 13.03125 -35.59375 C 13.957031 -37.195312 14.671875 -38.769531 15.171875 -40.3125 C 15.722656 -41.976562 16.09375 -43.675781 16.28125 -45.40625 C 16.457031 -47.125 16.363281 -48.785156 16 -50.390625 C 15.75 -51.441406 15.378906 -52.304688 14.890625 -52.984375 C 14.390625 -53.597656 13.832031 -54.0625 13.21875 -54.375 C 12.914062 -54.5 12.578125 -54.617188 12.203125 -54.734375 C 11.835938 -54.859375 11.4375 -54.984375 11 -55.109375 C 10.570312 -55.234375 10.109375 -55.359375 9.609375 -55.484375 C 9.117188 -55.546875 8.597656 -55.640625 8.046875 -55.765625 C 7.984375 -55.453125 7.953125 -55.171875 7.953125 -54.921875 L 7.953125 -53.453125 C 7.953125 -53.265625 7.984375 -53.046875 8.046875 -52.796875 C 8.046875 -52.492188 8.078125 -52.15625 8.140625 -51.78125 C 8.203125 -51.414062 8.265625 -50.953125 8.328125 -50.390625 C 8.328125 -49.835938 8.382812 -49.160156 8.5 -48.359375 C 8.625 -47.554688 8.75 -46.632812 8.875 -45.59375 C 9 -44.539062 9.125 -43.335938 9.25 -41.984375 C 9.375 -40.628906 9.523438 -39.117188 9.703125 -37.453125 C 9.890625 -35.722656 10.109375 -33.78125 10.359375 -31.625 Z M 10.359375 -31.8125 "/></g></g><g style="fill:#ffd483;fill-opacity:1;"><g transform="translate(292.805728, 206.581454)"><path style="stroke:none" d="M 11.46875 -6.109375 C 8.382812 -6.660156 5.976562 -8.257812 4.25 -10.90625 C 2.46875 -13.5625 1.265625 -16.890625 0.640625 -20.890625 C -0.0351562 -24.835938 -0.125 -29.28125 0.375 -34.21875 C 0.800781 -38.957031 1.785156 -43.945312 3.328125 -49.1875 C 4.128906 -52.03125 5.765625 -54.25 8.234375 -55.84375 C 9.835938 -56.769531 11.160156 -57.328125 12.203125 -57.515625 C 13.316406 -57.703125 14.273438 -57.703125 15.078125 -57.515625 C 15.878906 -57.328125 16.617188 -57.050781 17.296875 -56.6875 C 17.910156 -56.3125 18.617188 -56.125 19.421875 -56.125 C 21.203125 -56 22.679688 -55.414062 23.859375 -54.375 C 25.148438 -53.195312 26.132812 -51.867188 26.8125 -50.390625 C 27.550781 -48.785156 28.109375 -47.03125 28.484375 -45.125 C 28.660156 -44.132812 28.8125 -43.179688 28.9375 -42.265625 C 29 -41.335938 29.0625 -40.441406 29.125 -39.578125 C 29.1875 -36.921875 29.1875 -34.207031 29.125 -31.4375 C 29 -28.664062 28.722656 -25.984375 28.296875 -23.390625 C 27.859375 -20.867188 27.210938 -18.4375 26.359375 -16.09375 C 25.492188 -13.75 24.382812 -11.804688 23.03125 -10.265625 C 21.664062 -8.722656 20 -7.582031 18.03125 -6.84375 C 16.175781 -6.101562 13.925781 -5.976562 11.28125 -6.46875 Z M 14.140625 -9.890625 C 15.441406 -10.203125 16.613281 -11.46875 17.65625 -13.6875 C 18.707031 -16.03125 19.507812 -18.710938 20.0625 -21.734375 C 20.375 -23.335938 20.625 -24.96875 20.8125 -26.625 C 20.925781 -28.289062 21.015625 -30.019531 21.078125 -31.8125 C 21.203125 -35.570312 20.988281 -38.898438 20.4375 -41.796875 C 19.882812 -44.878906 18.957031 -47.4375 17.65625 -49.46875 C 16.363281 -51.5625 14.609375 -52.640625 12.390625 -52.703125 C 11.898438 -52.398438 11.375 -51.382812 10.8125 -49.65625 C 10.195312 -47.75 9.675781 -45.5625 9.25 -43.09375 C 9 -41.800781 8.8125 -40.441406 8.6875 -39.015625 C 8.5625 -37.597656 8.441406 -36.085938 8.328125 -34.484375 C 8.203125 -32.890625 8.171875 -31.351562 8.234375 -29.875 C 8.296875 -28.332031 8.382812 -26.789062 8.5 -25.25 C 8.75 -22.289062 9.367188 -19.421875 10.359375 -16.640625 C 11.285156 -13.992188 12.640625 -11.867188 14.421875 -10.265625 Z M 14.140625 -9.890625 "/></g></g><g clip-rule="nonzero" clip-path="url(#f671436240)"><path style=" stroke:none;fill-rule:nonzero;fill:#ffd483;fill-opacity:1;" d="M 94.058594 217.339844 L 98.238281 217.339844 C 98.238281 246.320312 121.816406 269.898438 150.796875 269.898438 C 179.777344 269.898438 203.355469 246.320312 203.355469 217.339844 L 207.535156 217.339844 C 207.535156 232.496094 201.632812 246.742188 190.917969 257.460938 C 180.199219 268.175781 165.953125 274.078125 150.796875 274.078125 C 135.640625 274.078125 121.390625 268.175781 110.675781 257.460938 C 99.960938 246.742188 94.058594 232.492188 94.058594 217.339844 Z M 94.058594 217.339844 "/></g></g></svg>